Release info:

General
Format                                   : Matroska
Format version                           : Version 4 / Version 2
File size                                : 700 MiB
Duration                                 : 1h 34mn
Overall bit rate                         : 1 035 Kbps
Movie name                               : Silent Hill Revelations 2012 DVDRip English

Video
ID                                       : 1
Format                                   : MPEG-4 Visual
Format profile                           : Simple@L3
Format settings, BVOP                    : No
Format settings, QPel                    : No
Format settings, GMC                     : No warppoints
Format settings, Matrix                  : Default (H.263)
Codec ID                                 : V_MS/VFW/FOURCC / XVID
Codec ID/Hint                            : XviD
Duration                                 : 1h 34mn
Bit rate                                 : 886 Kbps
Width                                    : 624 pixels
Height                                   : 352 pixels
Display aspect ratio                     : 16:9
Frame rate mode                          : Constant
Frame rate                               : 23.976 fps
Color space                              : YUV
Chroma subsampling                       : 4:2:0
Bit depth                                : 8 bits
Scan type                                : Progressive
Compression mode                         : Lossy
Bits/(Pixel*Frame)                       : 0.168
Stream size                              : 599 MiB (86%)
Title                                    : Silent Hill Revelations 2012 DVDRip English
Language                                 : English
Default                                  : Yes
Forced                                   : No

Audio
ID                                       : 2
Format                                   : MPEG Audio
Format version                           : Version 1
Format profile                           : Layer 3
Mode                                     : Joint stereo
Codec ID                                 : A_MPEG/L3
Codec ID/Hint                            : MP3
Duration                                 : 1h 34mn
Bit rate mode                            : Constant
Bit rate                                 : 128 Kbps
Channel(s)                               : 2 channels
Sampling rate                            : 48.0 KHz
Compression mode                         : Lossy
Stream size                              : 86.5 MiB (12%)
Title                                    : Silent Hill Revelations 2012 DVDRip English
Language                                 : English
Default                                  : Yes
Forced                                   : No



Source:
credit to original movie ripper PTpOWeR (Thanks)

IMDB Info:

When her father disappears, Heather Mason is drawn into a strange and terrifying alternate reality that holds answers to the horrific nightmares that have plagued her since childhood.

Director: Michael J. Bassett
Writer: Michael J. Bassett
Stars: Adelaide Clemens, Kit Harington and Sean Bean 

Genres: Horror | Mystery | Thriller
 
http://www.imdb.com/title/tt0938330/

Screen Shot:
 
http://www.shotpix.com/images/64600814230451060923.png 
http://www.shotpix.com/images/30138868196108867274.png 
http://www.shotpix.com/images/59872538278206794757.png 
http://www.shotpix.com/images/74310580554474702595.png